<?xml version="1.0" encoding="UTF-8"?>
<svg id="Capa_1" xmlns="http://www.w3.org/2000/svg" version="1.1" viewBox="0 0 360.76 325.96">
  <!-- Generator: Adobe Illustrator 29.0.0, SVG Export Plug-In . SVG Version: 2.1.0 Build 186)  -->
  <defs>
    <style>
      .st0 {
        fill: #b71918;
      }

      .st1 {
        fill: #189cd8;
      }

      .st2 {
        fill: #373f51;
      }

      .st3 {
        fill: #e5e6e5;
      }
    </style>
  </defs>
  <g>
    <path class="st0" d="M-201.28,228.14c-.18.18-.35.39-.52.61-.32.24-.64.52-.96.86-.34.37-.69.71-1.02,1.08-16.44,17.48-35.97,30.33-57.51,40.16-1.27.58-2.35.5-3.6-.05-19.25-8.63-36.72-20.01-52.33-34.56-14.06-13.1-25.35-28.34-35.33-44.78-.65-1.08-1.34-2.13-2.02-3.19,6.64,2.51,12.94,5.25,19.4,7.56,1.44.52,2.35,1.71,3.26,2.86,16.37,20.78,36.82,36.05,60.11,47.69,5.96,2.97,10.82,3.44,17.02.15,11.66-6.18,23.16-12.45,33.45-20.88.38-.31.85-.58,1.15-1,5.28,1.49,11.91,2.64,18.9,3.5Z"/>
    <path class="st3" d="M-152.09,229.99c-13.75.23-27.4-.79-41.01-2.6l-21.52-3.55s-.01,0-.04-.01h-.06c-.73-.09-5.24-.71-9.34-1.5-1.06.28-2.12.89-3.23,1.76-10.56,8.37-22.27,14.7-34.3,20.44-1.19.58-2.2.47-3.36-.06-17.82-8.11-34.26-18.42-48.58-32.28-5.7-5.5-10.96-11.41-16.01-17.51-1.67-2.02-3.73-3.3-5.99-4.28-11.28-4.86-22.55-9.68-33.52-15.25-14.78-7.48-28.87-16.15-41.9-26.6-9.94-7.97-18.94-16.94-25.78-27.98-4.52-7.28-7.49-15.16-6.46-24.16.9-8.06,5.13-14.01,10.9-19.05,7.4-6.46,16.07-10.29,25.18-13.31,3.95-1.3,7.89-2.68,12.4-3.14-.66,1.79-2.06,1.78-3.11,2.23-9.34,3.99-18.13,8.86-25,16.82-7.15,8.28-8.12,17.72-4.58,27.88,2.59,7.29,6.68,13.72,11.62,19.47,7.68,8.92,16.36,16.7,25.77,23.66,15.54,11.52,32.08,21.29,49.23,29.92,13.26,6.69,26.97,12.33,41.25,16.44-7.24-3.83-14.45-7.73-21.76-11.44-5.46-2.82-11.02-5.43-16.58-8.03-1.2-.57-1.76-1.54-2.38-2.59-11.71-19.6-18.91-40.98-22.99-63.58-1.59-8.86-3-17.74-3.36-26.77-.1-1.99.48-2.62,2.35-2.78,13.73-1.25,23.03-12.12,25.22-23.57.75-3.97.71-7.97-.43-11.83-.73-2.49.1-3.06,2.26-3.45,17.08-3.1,33.74-7.83,49.72-14.99,7.62-3.43,14.95-7.39,22.02-11.96,1.32-.86,2.42-1.19,3.97-.22,20.48,13.11,42.69,21.52,66.24,26.29,10.47,2.12,21.04,3.35,31.63,4.47,1.79.19,2.53.83,2.72,2.72,3.35,34.49-.56,67.95-12.77,100.32-8.37,22.1-20.4,41.68-36.47,58.54-.26.25-.6.48-.81.79l-8.36,7.25c15,2.78,34.37,5.4,49.62,5.62,6.2.12,12.35-.29,18.54-.32,2.1,0,2.85.7,3.29,2.69,1.22,5.47,1.31,5.41-4.19,5.5Z"/>
    <path class="st2" d="M-271.82,65.33c-21.33,3.59-35.34,23.61-35.12,44.62v.22c.12,7.22,1.9,14.54,5.65,21.36,11.24,20.37,22.53,40.69,33.83,61.03,2.3,4.13,2.48,4.12,4.74.03,11.24-20.23,22.47-40.45,33.66-60.71,3.75-6.8,5.67-14.18,5.88-20.45v-.14c.15-29.18-23.03-50.27-48.65-45.96ZM-265.22,135.63c-11.06-.11-20.01-9.87-19.95-21.74.05-11.8,8.82-21.01,20.03-21.01,11.46-.02,20.12,9.16,20.1,21.28,0,11.86-9.15,21.58-20.18,21.47Z"/>
    <path class="st0" d="M-155.76,70.11c.11-6.21-.82-15.07-1.66-23.95-.27-2.91-2-3.28-4.09-3.4-8.23-.47-16.38-1.57-24.51-2.94-26.56-4.47-51.63-13.2-74.4-28.52-1.64-1.1-2.82-.99-4.41.05-22.77,14.88-47.65,23.62-74.03,28.05-1.65.28-2.71.02-3.57-1.62-.73-1.39-1.72-2.71-2.81-3.81-1.88-1.89-.95-2.24.96-2.57,17.2-2.93,34.02-7.36,50.17-14.32,10.15-4.37,19.88-9.59,29.02-15.98,1.22-.85,2.31-1.69,3.91-.55,14.92,10.71,31.37,18.07,48.44,23.98,18.48,6.41,37.47,9.98,56.91,11.22,8.01.51,6.43-.7,7.4,7.14,2.53,20.51,2.39,41.01.1,61.58-3.37,30.33-12.51,58.62-26.63,85.19-4.8,9.04-10.4,17.57-16.57,25.67-.72.94-1.5,1.22-2.58,1.13-4.24-.35-8.48-.63-12.71-1.04-.92-.09-2.33.34-2.69-.76-.41-1.23.98-1.9,1.7-2.66,5.26-5.5,10.24-11.24,14.78-17.43,10.23-13.96,18-29.34,23.99-45.73,8.94-24.47,13.18-49.84,13.28-78.75Z"/>
    <path class="st2" d="M-389.4,53.2c.06-13.84,10.32-24.49,23.56-24.46,13.27.03,23.95,11.16,23.98,24.98.03,13.22-11.14,24.44-24.25,24.36-12.97-.08-23.34-11.17-23.28-24.88Z"/>
    <path class="st0" d="M-346.5,172.88c-2.45-1.46-4.9-2.92-7.35-4.38-1.24-.74-2.41-1.74-3.74-2.19-4.42-1.5-6.17-5.25-7.64-9.45-7.25-20.76-11.4-42.22-13.31-64.23-.33-3.79-.46-7.56-.53-11.35-.03-1.62,0-2.65,2.01-1.51,1.54.88,3.33,1.39,5.07,1.73,1.93.38,2.64,1.36,2.74,3.42.88,17.22,3.87,34.04,8.57,50.53,3.38,11.84,7.86,23.18,13.43,34.03.46.9.84,1.84,1.25,2.77-.17.21-.33.42-.5.63Z"/>
    <path class="st3" d="M-144.62,120.17c4.35,2.29,7.98,5.1,11.72,7.73,14.36,10.12,27.7,21.3,38.17,35.45,4.52,6.1,8.37,12.54,10.59,19.8,4.14,13.57-.47,25.87-12.58,33.62-3.66,2.34-7.57,4.19-11.66,5.7-1.99.74-3.1.56-3.11-1.9,0-1.49-.09-3.18-.78-4.44-1.63-2.97-.25-4.16,2.26-5.65,9.62-5.69,16.01-13.5,15.25-25.21-.45-7.01-2.89-13.5-6.38-19.62-7.97-13.98-19.43-24.94-31.67-35.23-3.45-2.9-6.97-5.73-10.74-8.23-.53-.35-1.23-.65-1.07-2.02Z"/>
    <path class="st2" d="M-130.34,209.19c6.13-.02,11.5,5.6,11.46,12-.03,6.86-5.21,12.4-11.59,12.42-6.04.01-11.6-5.69-11.65-11.94-.05-6.9,5.19-12.46,11.77-12.48Z"/>
    <path class="st3" d="M-387,96.04c-4.3,17.35-.17,32.67,9.45,46.61,3.65,5.29,6.4,11.09,9.74,16.58-.36.19-.57.38-.65.33-12.71-7.28-22.77-16.93-25.65-32.89-1.98-10.95.53-20.85,6.33-29.94.17-.27.5-.44.79-.69Z"/>
    <path class="st1" d="M-162.57,229.99"/>
    <path class="st2" d="M-398.8,324.91v-39.92h31.91v4.59h-26.88v11.72h16.25v4.59h-16.25v14.43h28.53v4.59h-33.57Z"/>
    <path class="st2" d="M-335.08,284.99c7.17,0,12.95,1.86,17.33,5.57,4.38,3.71,6.57,8.55,6.57,14.5s-2.16,10.81-6.47,14.43-10.13,5.42-17.43,5.42h-19.49v-39.92h19.49ZM-335.08,289.58h-13.85v30.74h13.85c5.61,0,10.02-1.38,13.23-4.14,3.22-2.76,4.82-6.49,4.82-11.19s-1.63-8.35-4.9-11.17c-3.27-2.82-7.65-4.23-13.15-4.23Z"/>
    <path class="st2" d="M-298.89,284.99v25.86c0,4.15.85,6.93,2.56,8.33,1.7,1.41,5.05,2.12,10.05,2.12s8.34-.71,10.03-2.12c1.69-1.41,2.54-4.19,2.54-8.33v-25.86h5.47v27.19c0,4.92-1.4,8.44-4.2,10.58-2.8,2.13-7.41,3.2-13.84,3.2s-11.03-1.07-13.84-3.2c-2.8-2.13-4.2-5.66-4.2-10.58v-27.19h5.43Z"/>
    <path class="st2" d="M-258.34,325.18v-39.92h2.73l27.19,29.83v-29.83h5.24v39.92h-2.66l-27.31-29.83v29.83h-5.2Z"/>
    <path class="st2" d="M-212.98,325.18v-39.92h32.49v4.59h-27.36v11.72h16.54v4.59h-16.54v14.43h29.05v4.59h-34.17Z"/>
    <path class="st2" d="M-175.04,325.7l17.84-20.07-17.6-19.85h6.66l14.35,15.98,14.31-15.98h6.58l-17.64,19.64,18.12,20.29h-6.98l-14.55-16.45-14.71,16.45h-6.38Z"/>
  </g>
  <g>
    <path class="st0" d="M242.13,228.14c-.18.18-.35.39-.52.61-.32.24-.64.52-.96.86-.34.37-.69.71-1.02,1.08-16.44,17.48-35.97,30.33-57.51,40.16-1.27.58-2.35.5-3.6-.05-19.25-8.63-36.72-20.01-52.33-34.56-14.06-13.1-25.35-28.34-35.33-44.78-.65-1.08-1.34-2.13-2.02-3.19,6.64,2.51,12.94,5.25,19.4,7.56,1.44.52,2.35,1.71,3.26,2.86,16.37,20.78,36.82,36.05,60.11,47.69,5.96,2.97,10.82,3.44,17.02.15,11.66-6.18,23.16-12.45,33.45-20.88.38-.31.85-.58,1.15-1,5.28,1.49,11.91,2.64,18.9,3.5Z"/>
    <path class="st3" d="M291.33,229.99c-13.75.23-27.4-.79-41.01-2.6l-21.52-3.55s-.01,0-.04-.01h-.06c-.73-.09-5.24-.71-9.34-1.5-1.06.28-2.12.89-3.23,1.76-10.56,8.37-22.27,14.7-34.3,20.44-1.19.58-2.2.47-3.36-.06-17.82-8.11-34.26-18.42-48.58-32.28-5.7-5.5-10.96-11.41-16.01-17.51-1.67-2.02-3.73-3.3-5.99-4.28-11.28-4.86-22.55-9.68-33.52-15.25-14.78-7.48-28.87-16.15-41.9-26.6-9.94-7.97-18.94-16.94-25.78-27.98-4.52-7.28-7.49-15.16-6.46-24.16.9-8.06,5.13-14.01,10.9-19.05,7.4-6.46,16.07-10.29,25.18-13.31,3.95-1.3,7.89-2.68,12.4-3.14-.66,1.79-2.06,1.78-3.11,2.23-9.34,3.99-18.13,8.86-25,16.82-7.15,8.28-8.12,17.72-4.58,27.88,2.59,7.29,6.68,13.72,11.62,19.47,7.68,8.92,16.36,16.7,25.77,23.66,15.54,11.52,32.08,21.29,49.23,29.92,13.26,6.69,26.97,12.33,41.25,16.44-7.24-3.83-14.45-7.73-21.76-11.44-5.46-2.82-11.02-5.43-16.58-8.03-1.2-.57-1.76-1.54-2.38-2.59-11.71-19.6-18.91-40.98-22.99-63.58-1.59-8.86-3-17.74-3.36-26.77-.1-1.99.48-2.62,2.35-2.78,13.73-1.25,23.03-12.12,25.22-23.57.75-3.97.71-7.97-.43-11.83-.73-2.49.1-3.06,2.26-3.45,17.08-3.1,33.74-7.83,49.72-14.99,7.62-3.43,14.95-7.39,22.02-11.96,1.32-.86,2.42-1.19,3.97-.22,20.48,13.11,42.69,21.52,66.24,26.29,10.47,2.12,21.04,3.35,31.63,4.47,1.79.19,2.53.83,2.72,2.72,3.35,34.49-.56,67.95-12.77,100.32-8.37,22.1-20.4,41.68-36.47,58.54-.26.25-.6.48-.81.79l-8.36,7.25c15,2.78,34.37,5.4,49.62,5.62,6.2.12,12.35-.29,18.54-.32,2.1,0,2.85.7,3.29,2.69,1.22,5.47,1.31,5.41-4.19,5.5Z"/>
    <path class="st2" d="M171.59,65.33c-21.33,3.59-35.34,23.61-35.12,44.62v.22c.12,7.22,1.9,14.54,5.65,21.36,11.24,20.37,22.53,40.69,33.83,61.03,2.3,4.13,2.48,4.12,4.74.03,11.24-20.23,22.47-40.45,33.66-60.71,3.75-6.8,5.67-14.18,5.88-20.45v-.14c.15-29.18-23.03-50.27-48.65-45.96ZM178.19,135.63c-11.06-.11-20.01-9.87-19.95-21.74.05-11.8,8.82-21.01,20.03-21.01,11.46-.02,20.12,9.16,20.1,21.28,0,11.86-9.15,21.58-20.18,21.47Z"/>
    <path class="st0" d="M287.65,70.11c.11-6.21-.82-15.07-1.66-23.95-.27-2.91-2-3.28-4.09-3.4-8.23-.47-16.38-1.57-24.51-2.94-26.56-4.47-51.63-13.2-74.4-28.52-1.64-1.1-2.82-.99-4.41.05-22.77,14.88-47.65,23.62-74.03,28.05-1.65.28-2.71.02-3.57-1.62-.73-1.39-1.72-2.71-2.81-3.81-1.88-1.89-.95-2.24.96-2.57,17.2-2.93,34.02-7.36,50.17-14.32,10.15-4.37,19.88-9.59,29.02-15.98,1.22-.85,2.31-1.69,3.91-.55,14.92,10.71,31.37,18.07,48.44,23.98,18.48,6.41,37.47,9.98,56.91,11.22,8.01.51,6.43-.7,7.4,7.14,2.53,20.51,2.39,41.01.1,61.58-3.37,30.33-12.51,58.62-26.63,85.19-4.8,9.04-10.4,17.57-16.57,25.67-.72.94-1.5,1.22-2.58,1.13-4.24-.35-8.48-.63-12.71-1.04-.92-.09-2.33.34-2.69-.76-.41-1.23.98-1.9,1.7-2.66,5.26-5.5,10.24-11.24,14.78-17.43,10.23-13.96,18-29.34,23.99-45.73,8.94-24.47,13.18-49.84,13.28-78.75Z"/>
    <path class="st2" d="M54.01,53.2c.06-13.84,10.32-24.49,23.56-24.46,13.27.03,23.95,11.16,23.98,24.98.03,13.22-11.14,24.44-24.25,24.36-12.97-.08-23.34-11.17-23.28-24.88Z"/>
    <path class="st0" d="M96.91,172.88c-2.45-1.46-4.9-2.92-7.35-4.38-1.24-.74-2.41-1.74-3.74-2.19-4.42-1.5-6.17-5.25-7.64-9.45-7.25-20.76-11.4-42.22-13.31-64.23-.33-3.79-.46-7.56-.53-11.35-.03-1.62,0-2.65,2.01-1.51,1.54.88,3.33,1.39,5.07,1.73,1.93.38,2.64,1.36,2.74,3.42.88,17.22,3.87,34.04,8.57,50.53,3.38,11.84,7.86,23.18,13.43,34.03.46.9.84,1.84,1.25,2.77-.17.21-.33.42-.5.63Z"/>
    <path class="st3" d="M298.79,120.17c4.35,2.29,7.98,5.1,11.72,7.73,14.36,10.12,27.7,21.3,38.17,35.45,4.52,6.1,8.37,12.54,10.59,19.8,4.14,13.57-.47,25.87-12.58,33.62-3.66,2.34-7.57,4.19-11.66,5.7-1.99.74-3.1.56-3.11-1.9,0-1.49-.09-3.18-.78-4.44-1.63-2.97-.25-4.16,2.26-5.65,9.62-5.69,16.01-13.5,15.25-25.21-.45-7.01-2.89-13.5-6.38-19.62-7.97-13.98-19.43-24.94-31.67-35.23-3.45-2.9-6.97-5.73-10.74-8.23-.53-.35-1.23-.65-1.07-2.02Z"/>
    <path class="st2" d="M313.07,209.19c6.13-.02,11.5,5.6,11.46,12-.03,6.86-5.21,12.4-11.59,12.42-6.04.01-11.6-5.69-11.65-11.94-.05-6.9,5.19-12.46,11.77-12.48Z"/>
    <path class="st3" d="M56.41,96.04c-4.3,17.35-.17,32.67,9.45,46.61,3.65,5.29,6.4,11.09,9.74,16.58-.36.19-.57.38-.65.33-12.71-7.28-22.77-16.93-25.65-32.89-1.98-10.95.53-20.85,6.33-29.94.17-.27.5-.44.79-.69Z"/>
    <path class="st1" d="M280.84,229.99"/>
    <path class="st3" d="M44.61,324.91v-39.92h31.91v4.59h-26.88v11.72h16.25v4.59h-16.25v14.43h28.53v4.59h-33.57Z"/>
    <path class="st3" d="M108.33,284.99c7.17,0,12.95,1.86,17.33,5.57,4.38,3.71,6.57,8.55,6.57,14.5s-2.16,10.81-6.47,14.43-10.13,5.42-17.43,5.42h-19.49v-39.92h19.49ZM108.33,289.58h-13.85v30.74h13.85c5.61,0,10.02-1.38,13.23-4.14,3.22-2.76,4.82-6.49,4.82-11.19s-1.63-8.35-4.9-11.17c-3.27-2.82-7.65-4.23-13.15-4.23Z"/>
    <path class="st3" d="M144.52,284.99v25.86c0,4.15.85,6.93,2.56,8.33,1.7,1.41,5.05,2.12,10.05,2.12s8.34-.71,10.03-2.12c1.69-1.41,2.54-4.19,2.54-8.33v-25.86h5.47v27.19c0,4.92-1.4,8.44-4.2,10.58-2.8,2.13-7.41,3.2-13.84,3.2s-11.03-1.07-13.84-3.2c-2.8-2.13-4.2-5.66-4.2-10.58v-27.19h5.43Z"/>
    <path class="st3" d="M185.07,325.18v-39.92h2.73l27.19,29.83v-29.83h5.24v39.92h-2.66l-27.31-29.83v29.83h-5.2Z"/>
    <path class="st3" d="M230.43,325.18v-39.92h32.49v4.59h-27.36v11.72h16.54v4.59h-16.54v14.43h29.05v4.59h-34.17Z"/>
    <path class="st3" d="M268.37,325.7l17.84-20.07-17.6-19.85h6.66l14.35,15.98,14.31-15.98h6.58l-17.64,19.64,18.12,20.29h-6.98l-14.55-16.45-14.71,16.45h-6.38Z"/>
  </g>
</svg>