<?xml version="1.0" encoding="UTF-8"?>
<svg id="Capa_1" data-name="Capa 1" xmlns="http://www.w3.org/2000/svg" viewBox="0 0 24.75 24.75">
  <defs>
    <style>
      .cls-1 {
        stroke: #373f51;
        stroke-width: .5px;
      }

      .cls-1, .cls-2, .cls-3, .cls-4 {
        stroke-miterlimit: 10;
      }

      .cls-1, .cls-5 {
        fill: #e5e7e6;
      }

      .cls-2 {
        fill: #b91a1b;
        stroke: #b91a1b;
      }

      .cls-3 {
        stroke-width: .75px;
      }

      .cls-3, .cls-4 {
        fill: #373f51;
        stroke: #e5e7e6;
      }

      .cls-4 {
        stroke-width: .25px;
      }
    </style>
  </defs>
  <rect class="cls-3" x=".38" y=".38" width="24" height="24" rx="4.1" ry="4.1"/>
  <path class="cls-5" d="M4.47,7.98c.13-.19.97-.9.99-1,.02-.12-.35-.55-.27-.81.06-.21.51-.33.71-.43.11-.05.17-.07.27-.12.21-.1.41-.22.64-.29-.02-.28-.26-1.07-.03-1.24.07-.05.21-.08.31-.09.51-.09,1.1-.11,1.61-.15.04-.25-.12-.69.16-.81,2.3-.09,4.61-.02,6.92-.03.38.06.26.55.28.84l1.61.15c.74.04.13,1.06.3,1.34.06.09,1.12.5,1.32.62.6.35-.07.76,0,1.04.03.13.8.75.94.95.09.13.13.21.08.38-.03.1-1.39,1.49-1.49,1.49h-.77l1.54-1.62-.62-.57c-.13.26-.92,2.19-1.04,2.19h-1.12l.6-5.22-1.34-.15v5.29c0,.11-.65.11-.65,0v-4.65h-6.12v4.72h-.6v-5.37l-1.34.15.59,5.1s-.05.12-.07.12h-1.09l-1.04-2.19s-.54.47-.56.51c-.02.04-.02.07,0,.11l1.11,1.08.38.49c-.21-.04-.59.05-.77,0-.1-.03-1.32-1.28-1.42-1.42-.13-.18-.13-.22,0-.4ZM12.7,7.8c-.36.37-.21,1.49-1.19,1.34-.5-.08-.5-.63-.58-.68-.07-.04-.37.03-.39-.18-.03-.3.33-.18.39-.23.05-.03.19-1,.65-.72.24.14-.08.41-.14.56-.11.27-.11.88.3.75.28-.09.32-1.24.92-1.37.37-.08.74,0,.92.35.07.14.07.42.09.43.02.02.55-.1.41.23-.1.25-.37.13-.41.17,0,0,0,.14-.03.2-.09.23-.47.91-.72.53-.15-.24.34-.56.34-.95,0-.32-.3-.69-.56-.42ZM21.77,20.71c-.08.56-.48,1.02-1.07,1.07H4c-.51-.05-.99-.5-1.02-1.02v-9.45c.06-.49.53-.94,1.02-.97l16.93.03c.17.04.59.35.68.49.08.13.15.44.17.6v9.25Z"/>
  <rect class="cls-5" x="9.29" y="3.63" width="6.12" height=".85"/>
  <path class="cls-5" d="M6.83,5.96c-.13.14-.93.36-.91.51l1.34,2.87-.42-3.38Z"/>
  <path class="cls-1" d="M17.87,19.83c2,.26,1.96-2.89-.04-2.57-1.39.22-1.39,2.38.04,2.57Z"/>
  <path class="cls-4" d="M3.58,20.7c0,.21.43.54.67.47l16.49-.03c.14-.04.4-.25.4-.4v-5H3.58v4.95ZM17.93,16.62c2.78-.2,2.66,4.15-.05,3.85-2.33-.25-2.24-3.69.05-3.85ZM10.21,18.99c.22-.04.99-.02,1.24,0,.08,0,.2,0,.26.06.14.14.07.49-.16.53-.19.04-1.09.03-1.29,0-.37-.06-.34-.54-.05-.59ZM9.12,19.59c-1.31.15-2.89-.12-4.23,0-.34-.01-.46-.43-.14-.59l4.54.02c.28.22.19.53-.17.57ZM4.8,17.51h2.92c.39.16.33.57-.1.63-.82.11-1.88-.07-2.73,0-.37-.06-.47-.5-.09-.63Z"/>
  <polygon class="cls-5" points="17.87 5.96 17.5 9.39 18.84 6.44 17.87 5.96"/>
  <path class="cls-3" d="M20.56,10.93H4.19c-.25,0-.57.17-.62.43-.06.32.05.83,0,1.17h17.55v-1.22c0-.1-.42-.44-.57-.38Z"/>
  <rect class="cls-2" x="3.58" y="13.12" width="17.55" height="2.04"/>
</svg>