<?xml version="1.0" encoding="UTF-8"?>
<svg id="Capa_1" data-name="Capa 1" xmlns="http://www.w3.org/2000/svg" viewBox="0 0 24.75 24.75">
  <defs>
    <style>
      .cls-1 {
        fill: #b71d1b;
      }

      .cls-1, .cls-2, .cls-3, .cls-4 {
        stroke: #e5e7e6;
        stroke-miterlimit: 10;
      }

      .cls-1, .cls-3, .cls-4 {
        stroke-width: .25px;
      }

      .cls-2 {
        stroke-width: .75px;
      }

      .cls-2, .cls-3 {
        fill: #373f51;
      }

      .cls-4 {
        fill: #e6e6e5;
      }
    </style>
  </defs>
  <rect class="cls-2" x=".38" y=".38" width="24" height="24" rx="4.1" ry="4.1"/>
  <g>
    <path class="cls-3" d="M9.26,9.21c.26.16.55.22.83.32,1.15.39,2.33.48,3.53.27.59-.1,1.14-.31,1.71-.49.21-.06.32-.15.27-.38,0-.02,0-.04,0-.06.03-.2-.04-.27-.25-.26-.99.01-1.98,0-2.97,0-.99,0-1.98,0-2.97,0-.09,0-.24-.06-.24.1,0,.16-.11.36.1.49Z"/>
    <path class="cls-1" d="M12.4,15.22s-.01,0-.02,0c-.42,0-.45.03-.38.39.05.25.2.38.43.36.24-.02.37-.24.34-.59-.02-.29-.24-.12-.36-.16Z"/>
    <path class="cls-4" d="M12.86,14.33c1.52-.24,2.7-1.49,2.74-3.2-.03-.25-.03-.52-.11-.79-.04-.13-.09-.16-.22-.12-.28.09-.56.18-.85.26-.93.26-1.87.33-2.82.24-.72-.07-1.41-.25-2.08-.49-.16-.06-.23-.03-.27.14-.06.33-.1.65-.07.98.13,1.88,1.82,3.26,3.68,2.96Z"/>
    <path class="cls-3" d="M14.03,14.87s-.04.02-.06.02c-.44.18-.38.07-.37.56,0,.44-.1.81-.45,1.1-.09.07-.05.14,0,.21.18.24.36.49.55.73.2.27.31.56.3.9-.01.33,0,.67,0,1.05.05-.06.07-.09.09-.11.75-1.25,1.5-2.49,2.26-3.74.08-.13.03-.17-.09-.21-.43-.17-.87-.32-1.3-.52-.32-.15-.63-.23-.93.01Z"/>
    <path class="cls-1" d="M12.39,6.15c.42-.02.77-.37.77-.79,0-.43-.37-.79-.79-.79-.43,0-.79.37-.78.8,0,.43.38.79.8.78Z"/>
    <path class="cls-3" d="M12.38,7.78c1.05,0,2.1,0,3.16,0,.17,0,.26-.05.32-.2.14-.31.32-.61.45-.93.12-.27.29-.49.58-.58.27-.09.36-.26.34-.54-.01-.2-.07-.29-.26-.35-.36-.11-.72-.21-1.03-.45-.76-.6-1.55-1.17-2.32-1.76-.12-.1-.25-.14-.41-.14-.57,0-1.13,0-1.7,0-.14,0-.26.04-.37.13-.6.46-1.21.91-1.8,1.37-.5.39-1.01.75-1.64.88-.03,0-.07.02-.09.04-.03.02-.07.04-.07.07,0,.18-.02.36,0,.54.01.12.16.14.25.18.33.12.54.35.67.68.12.3.29.58.43.87.07.15.16.2.33.2,1.05,0,2.1,0,3.16,0ZM12.38,3.73c.91,0,1.63.72,1.63,1.63,0,.92-.72,1.64-1.64,1.64-.91,0-1.62-.73-1.62-1.64,0-.91.73-1.63,1.63-1.63Z"/>
    <path class="cls-3" d="M9.32,18.77c-.57-.95-1.14-1.89-1.71-2.84-.06-.09-.11-.17-.24-.11-.33.13-.66.25-.95.44-.91.59-1.31,1.46-1.31,2.52,0,.96,0,1.92,0,2.87q0,.26.27.27c1.87,0,3.74,0,5.6,0,.07,0,.13,0,.24,0-.05-.08-.07-.12-.09-.16-.6-.99-1.2-1.99-1.8-2.98Z"/>
    <path class="cls-3" d="M11.55,16.52c-.21-.18-.35-.42-.39-.69-.03-.19-.02-.39-.01-.59,0-.14-.04-.22-.18-.27-.18-.07-.36-.15-.53-.24-.1-.05-.18-.05-.29-.01-.54.22-1.09.44-1.64.65-.17.06-.19.12-.09.27.43.71.86,1.42,1.29,2.13.33.55.66,1.09.99,1.64.01,0,.03-.01.04-.02,0-.33,0-.66,0-.99-.01-.35.1-.65.31-.92.18-.23.34-.47.53-.69.08-.11.09-.17-.02-.27Z"/>
    <path class="cls-3" d="M19.64,18.75c0-.49-.09-.98-.32-1.43-.4-.78-1.08-1.2-1.87-1.49-.17-.06-.25-.03-.34.12-.69,1.16-1.4,2.32-2.1,3.48-.49.81-.98,1.62-1.48,2.45.08,0,.13.01.17.01,1.91,0,3.82,0,5.73,0,.18,0,.21-.07.21-.23,0-.98,0-1.96,0-2.93ZM16,21.01c-.23,0-.4-.19-.4-.42,0-.24.2-.42.43-.41.23,0,.4.19.4.42,0,.24-.19.42-.43.41ZM18.47,21c-.15,0-.3,0-.44,0-.13,0-.27,0-.4,0-.24-.02-.4-.19-.4-.42,0-.22.16-.4.4-.4.28-.01.57-.01.85,0,.23,0,.39.18.4.4,0,.23-.16.41-.4.43Z"/>
    <path class="cls-1" d="M13.16,19.58c0-.38,0-.76,0-1.13,0-.15-.03-.29-.12-.42-.19-.25-.38-.5-.57-.76-.08-.11-.13-.1-.21,0-.17.24-.35.48-.53.71-.11.14-.16.29-.16.47,0,.75,0,1.5,0,2.25,0,.09,0,.17.06.25.17.28.33.56.5.83.12.19.35.19.47,0,.13-.2.23-.41.37-.6.14-.21.21-.43.19-.68-.02-.3,0-.61,0-.91Z"/>
  </g>
</svg>