<?xml version="1.0" encoding="UTF-8"?>
<svg id="Capa_1" data-name="Capa 1" xmlns="http://www.w3.org/2000/svg" viewBox="0 0 24.75 24.75">
  <defs>
    <style>
      .cls-1 {
        stroke: #e5e7e6;
        stroke-width: .75px;
      }

      .cls-1, .cls-2, .cls-3, .cls-4 {
        stroke-miterlimit: 10;
      }

      .cls-1, .cls-3 {
        fill: #373f51;
      }

      .cls-2 {
        fill: #e6e8e6;
      }

      .cls-2, .cls-3, .cls-4 {
        stroke: #e6e8e6;
        stroke-width: .12px;
      }

      .cls-4 {
        fill: #b91818;
      }
    </style>
  </defs>
  <rect class="cls-1" x=".38" y=".38" width="24" height="24" rx="4.1" ry="4.1"/>
  <g>
    <path class="cls-3" d="M15.18,23.02c-2.31,0-4.63,0-6.94,0-.14,0-.29,0-.42-.04-.1-.03-.18-.09-.18-.21,0-.12.07-.18.18-.21.05-.02.11-.02.17-.02.35,0,.71,0,1.06,0,.1,0,.11-.02.07-.11-.08-.18-.11-.38-.11-.58,0-.91,0-1.81,0-2.72,0-.38.04-.76.13-1.13.1-.42.31-.77.68-1.02.03-.02.05-.04.08-.06.06-.04.08-.1.06-.17-.02-.07-.09-.08-.15-.08-.13,0-.27,0-.4-.02-.26-.03-.44-.24-.42-.49.02-.3.18-.46.46-.46.19,0,.39,0,.58,0,.19,0,.25.09.24.27,0,.06,0,.12,0,.18-.02.09.03.16.11.18.08.02.08-.07.1-.12.22-.59.51-1.14.86-1.66.22-.33.51-.5.91-.52.63-.02,1.25-.07,1.88-.08.58,0,1.17-.04,1.75-.02.81.03,1.62.04,2.43.12.25.03.42.18.57.37.41.55.74,1.15,1.04,1.77.02.05.02.16.12.13.09-.03.11-.11.1-.2-.02-.4.02-.44.42-.44.14,0,.28,0,.41,0,.25,0,.44.2.44.47,0,.26-.18.47-.42.48-.14,0-.28.01-.43.02-.06,0-.13,0-.15.08-.02.06.01.12.05.16.02.02.04.03.06.05.48.34.7.82.76,1.39.11.96.06,1.93.07,2.9,0,.33,0,.66-.04.98-.01.08-.03.16-.07.22-.06.09-.02.1.06.1.35,0,.69,0,1.04,0,.07,0,.14,0,.21.02.13.04.21.12.21.23,0,.1-.09.19-.23.2-.13.01-.27.02-.4.02-2.31,0-4.62,0-6.93,0ZM15.33,16.39c-1.04.02-2.04.04-3.04.11-.49.04-.99.09-1.48.13-.07,0-.16.01-.18.1-.01.08.07.1.12.13.45.27.91.54,1.36.8.15.09.32.16.5.18.4.06.81.06,1.21.08,1.23.04,2.45.03,3.68-.03.3-.02.58-.08.84-.24.44-.27.88-.53,1.32-.8.05-.03.13-.05.1-.13-.02-.08-.09-.1-.16-.1-.71-.08-1.42-.14-2.14-.18-.72-.04-1.44-.04-2.12-.06ZM15.19,22.54c1.28,0,2.56,0,3.83,0,.1,0,.13-.01.08-.12-.08-.17-.12-.36-.12-.55,0-.18,0-.18-.18-.18-1.35,0-2.69,0-4.04,0-1.06,0-2.12,0-3.19,0-.12,0-.18.03-.18.16,0,.19-.03.38-.12.55-.06.12-.01.13.09.13,1.27,0,2.55,0,3.82,0ZM14.54,14.42s-.07,0-.1,0c-.72.02-1.43.04-2.15.05-.24,0-.42.11-.55.31-.05.08-.1.16-.15.24-.18.32-.33.66-.46,1-.08.21-.08.21.13.2.37-.03.73-.06,1.1-.09.1,0,.13-.05.13-.15,0-.16.01-.33.05-.49.05-.24.18-.43.43-.48.25-.06.5-.03.74.05.21.07.33.21.4.41.05.13.06.26.05.4-.01.13.05.16.16.14.19-.03.38-.02.57-.02.4,0,.8,0,1.2.02.17.01.17,0,.18-.17.04-.45.2-.74.65-.82.03,0,.06,0,.08-.04h-1.13s.05.04.07.05c.02.02.05.04.04.07-.01.04-.05.02-.08.03-.03,0-.05,0-.08,0-.49,0-.97-.05-1.46-.11-.22-.03-.44-.04-.68-.12.28-.18.58-.29.84-.47ZM11.92,18.81s.04,0,.06,0c.21,0,.24-.05.16-.24-.1-.23-.25-.41-.49-.51-.52-.21-1.03-.41-1.58-.54-.14-.03-.24,0-.32.11-.13.15-.18.33-.21.52-.05.32.02.43.33.47.68.1,1.37.15,2.05.19ZM18.49,18.82c.52-.04,1.06-.07,1.59-.14.19-.02.38-.03.56-.09.17-.06.22-.13.21-.31-.01-.17-.06-.33-.13-.48-.12-.25-.24-.31-.51-.24-.51.13-.99.32-1.47.52-.24.1-.41.27-.51.51-.08.19-.04.24.16.24.03,0,.05,0,.09,0ZM18.64,20.94c.63-.02,1.2-.05,1.76-.11.13-.01.27-.02.38-.12.03-.02.07-.05.05-.09-.02-.05-.07-.02-.1,0-.15.04-.31.05-.46.06-.44.03-.89.06-1.33.1-.21.02-.4.02-.59-.11-.07-.05-.16-.07-.25-.06-.59.05-1.18.06-1.77.07-.64.01-1.29.02-1.93,0-.62-.02-1.23-.02-1.85-.05-.24-.01-.49-.04-.71.11-.06.04-.15.04-.23.04-.42-.03-.83-.06-1.25-.09-.23-.02-.46-.03-.68-.07-.04,0-.1-.05-.11,0-.02.05.04.09.08.12.13.07.27.09.41.1.46.05.92.07,1.38.1.2.01.41.06.6-.05.15-.09.3-.1.46-.09.36.02.72.04,1.07.04.83,0,1.66,0,2.49,0,.57,0,1.15-.02,1.72-.05.14,0,.29-.03.42.04.16.09.33.13.44.11ZM15.17,19.56c.73,0,1.37,0,2-.08.27-.03.48-.15.62-.39.03-.05.05-.11,0-.14-.06-.04-.08.03-.1.06-.13.17-.29.27-.51.3-.4.04-.81.06-1.21.07-.79.02-1.57,0-2.36-.05-.32-.02-.66-.01-.85-.35-.02-.04-.07-.06-.11-.03-.04.03-.01.07,0,.11.11.29.36.39.63.41.66.07,1.33.09,1.89.08ZM19.21,16.24c.1.01.13,0,.09-.09-.21-.48-.45-.95-.74-1.39-.05-.07-.1-.14-.17-.2-.05-.04-.12-.05-.17-.02-.04.03.01.09.03.13.21.42.42.84.64,1.26.03.05.08.12.04.17-.1.13.02.11.08.12.07.01.14.02.19.02ZM20.04,20.39c.14-.02.29,0,.43-.06.15-.06.25-.21.22-.37-.01-.08-.05-.15-.14-.14-.25.04-.5.08-.75.13-.1.02-.13.09-.12.18.03.18.13.26.36.26ZM10.31,20.39c.06,0,.15,0,.24-.05.11-.05.14-.15.14-.26,0-.1-.08-.13-.17-.15-.22-.04-.44-.08-.66-.12-.07-.01-.12.03-.14.1-.06.2.08.41.32.44.09.01.17.01.29.02ZM15.2,18.9c.13,0,.25,0,.37-.04.1-.03.17-.1.17-.21,0-.1-.06-.16-.15-.19-.25-.1-.51-.1-.76,0-.08.03-.14.09-.13.19,0,.1.07.15.15.19.11.05.23.05.34.06ZM18.54,17.9c.14-.07.29-.13.43-.19.38-.17.77-.3,1.17-.43.03-.01.1,0,.09-.06-.02-.11-.26-.22-.36-.16-.26.16-.53.31-.79.47-.19.11-.38.22-.54.38ZM11.81,17.83s-.07-.06-.11-.08c-.4-.24-.81-.48-1.21-.72-.09-.05-.14,0-.2.05-.15.14-.15.14.04.21.5.17.99.33,1.48.54Z"/>
    <path class="cls-4" d="M10.87,5.66c0-1.25,0-2.5,0-3.74,0-.18,0-.18.18-.18,1.17,0,2.33,0,3.5,0,.53,0,1.06.07,1.56.27.83.34,1.35.95,1.49,1.86.07.48.06.97-.14,1.43-.32.75-.91,1.16-1.68,1.34-.32.07-.64.11-.96.11-.61,0-1.22,0-1.83,0-.12,0-.16.03-.16.16,0,.84,0,1.68,0,2.53,0,.19,0,.19-.19.19-.54,0-1.08,0-1.62,0-.12,0-.15-.04-.15-.16,0-1.26,0-2.52,0-3.78ZM12.83,4.19c0,.25,0,.51,0,.76,0,.25-.02.22.23.22.39,0,.78,0,1.17,0,.2,0,.4-.02.6-.05.9-.16.96-1.01.62-1.48-.21-.28-.52-.36-.84-.39-.55-.05-1.1-.02-1.64-.03-.1,0-.13.03-.13.13,0,.28,0,.56,0,.84Z"/>
    <path class="cls-3" d="M9.71,9.07c-.03.29-.11.57-.24.83-.26.52-.95,1-1.7.85-.5-.1-.95-.6-1.03-1.16-.01-.09-.02-.18-.03-.27,0-.06-.04-.1-.1-.1-.07,0-.04.06-.04.1-.02.42.13.78.37,1.11.04.05.12.1.07.16-.05.06-.12-.02-.17-.04-.3-.14-.56-.34-.84-.51-.04-.02-.09-.08-.14-.04-.04.04-.04.1-.03.16.02.14.03.28.05.42.03.28-.04.42-.3.54-.37.18-.76.34-1.13.51-.14.06-.28.13-.43.19-.07.03-.1.07-.1.15,0,.12.02.23,0,.35-.03.24-.19.37-.43.34-.44-.06-.88-.11-1.32-.17-.13-.02-.19-.09-.19-.24,0-.58,0-1.17,0-1.75,0-.22,0-.43,0-.65,0-.16.11-.25.26-.22.37.06.74.13,1.11.2.19.03.32.11.38.3.01.05.04.06.08.05,0,0,0,0,.01,0q.38-.06.38-.43s0-.03,0-.04c.03-.24-.01-.44-.26-.55-.1-.05-.15-.17-.15-.29,0-.1-.05-.16-.12-.21-.19-.14-.39-.27-.58-.41-.32-.23-.48-.55-.49-.94-.02-.67.17-1.27.57-1.8.48-.63,1.29-.81,1.98-.42.83.47,1.64.98,2.46,1.47.74.45,1.49.89,2.23,1.34.16.1.31.21.43.35.17.18.25.39.22.64-.03.27-.32.5-.59.46-.14-.02-.21-.11-.22-.25ZM10.16,8.69c-.03-.16-.12-.3-.26-.39-.14-.1-.29-.2-.45-.29-.9-.54-1.81-1.08-2.71-1.62-.57-.34-1.13-.71-1.72-1.02-.48-.25-.97-.2-1.34.13-.27.24-.41.57-.52.91-.02.07.01.11.07.15.4.26.79.53,1.18.79.67.45,1.35.9,2.01,1.37.11.07.21.15.34.19.26.07.47-.02.67-.19.32-.28.67-.5,1.1-.58.63-.11,1.19.02,1.62.54ZM2.88,11.21c0,.06,0,.11,0,.17,0,.25.01.27.25.17.53-.21,1.06-.42,1.59-.62.07-.03.09-.06.04-.12-.07-.12-.12-.25-.13-.39,0-.1-.04-.12-.14-.1-.49.13-.99.27-1.49.38-.08.02-.1.06-.11.13-.02.13,0,.25-.01.37ZM3.1,6.92s-.04.03-.05.06c-.04.12,0,.2.11.27.7.46,1.4.93,2.1,1.4.27.18.54.36.81.54.03.02.06.08.11.02.08-.11.06-.21-.05-.29-.41-.27-.82-.55-1.23-.82-.57-.38-1.14-.75-1.71-1.12-.03-.02-.06-.03-.08-.05ZM2.46,11.06h0c0,.32,0,.63,0,.95,0,.1.04.14.14.15.3.03.6.08.9.12.07,0,.14.03.13-.08,0-.08.04-.18-.11-.18-.21,0-.42-.02-.63-.02-.2,0-.3-.08-.31-.27-.01-.35,0-.71,0-1.06,0-.19.07-.25.26-.3.16-.04.31-.06.47-.1.03,0,.06-.01.07-.05,0-.03-.03-.05-.06-.06-.03-.01-.06-.02-.1-.03-.21-.04-.42-.07-.62-.12-.11-.02-.15,0-.15.12,0,.31,0,.62,0,.93ZM9.27,9.02c0-.11,0-.22-.03-.33-.02-.05-.05-.08-.11-.07-.07,0-.04.06-.04.1.02.17.04.33.01.5-.06.43-.28.75-.68.93-.35.16-.72.07-.94-.22-.13-.17-.19-.37-.21-.58,0-.05-.01-.09-.07-.08-.06,0-.07.04-.07.09.01.1.03.21.05.31.14.55.73.84,1.26.63.51-.2.82-.69.83-1.28ZM5.5,10.61c-.2.01-.36-.15-.34-.34,0-.11.01-.22.03-.33,0-.07-.03-.08-.07-.1-.11-.05-.22-.09-.34-.14-.05-.02-.12-.09-.16-.04-.05.06-.01.15,0,.22.01.05.07.06.12.07.1.02.19.04.29.06.06.01.11.03.1.11,0,.06,0,.12-.09.14-.08.01-.1.06-.09.13.02.1.05.2.11.29.13.16.37.19.48.06.02-.03.05-.06.04-.09-.02-.05-.06-.02-.08-.02ZM8.25,8.88c-.15,0-.26.11-.27.27,0,.17.09.3.25.3.15,0,.28-.12.28-.28,0-.16-.12-.29-.26-.3ZM5.49,9.75s-.06-.07-.1-.09c-.3-.19-.59-.38-.89-.56-.05-.03-.13-.11-.16-.06-.05.07.05.12.1.16.01.01.03.02.04.03.29.2.61.35.92.52.02.01.05.04.09,0Z"/>
    <path class="cls-2" d="M17.26,13.69c-.09.04-.18,0-.26,0-.81,0-1.62,0-2.44,0-.14,0-.25-.03-.36-.11-.87-.58-1.73-1.15-2.6-1.72-.68-.45-1.36-.89-2.04-1.33-.1-.07-.13-.11-.04-.22.14-.16.13-.16.32-.07.99.49,1.99.95,2.99,1.4,1.03.46,2.05.93,3.08,1.4.42.19.85.39,1.27.58.03.01.06.02.08.06Z"/>
    <path class="cls-2" d="M13.88,13.66c-.16.01-.29.02-.43.03-.49.02-.97.04-1.46.07-.08,0-.13-.03-.18-.08-.38-.39-.76-.79-1.15-1.18-.51-.52-1.03-1.03-1.54-1.55-.04-.04-.13-.07-.07-.15.05-.07.23-.11.29-.07.42.28.84.57,1.26.84,1.04.68,2.07,1.36,3.13,2,.04.02.08.05.15.09Z"/>
    <path class="cls-2" d="M10.05,15.38c-.31-.04-.65-.03-.98.09-.08.03-.08-.04-.09-.08-.13-.47-.26-.93-.38-1.4-.23-.9-.46-1.81-.69-2.71-.01-.06-.08-.14.02-.18.11-.05.25-.01.29.08.27.55.53,1.11.79,1.66.39.8.79,1.6,1.18,2.39q.08.16-.13.15Z"/>
    <path class="cls-2" d="M8.77,10.97s.05.03.07.06c.67.85,1.38,1.66,2.07,2.48.11.14.23.27.34.4.05.05.05.09,0,.14-.2.21-.35.46-.5.71-.08.14-.09.14-.17,0-.48-.81-.96-1.62-1.45-2.44-.22-.37-.44-.75-.66-1.13-.05-.09-.05-.14.06-.17.08-.02.15-.05.23-.07Z"/>
    <path class="cls-3" d="M6.98,8.64c0,.11-.1.22-.2.22-.11,0-.19-.09-.19-.19,0-.12.09-.22.2-.22.11,0,.19.09.18.19Z"/>
    <path class="cls-3" d="M3.22,11.26c-.11,0-.2-.1-.2-.22,0-.11.08-.19.19-.19.11,0,.19.09.19.21,0,.11-.08.2-.18.2Z"/>
  </g>
</svg>