<?xml version="1.0" encoding="UTF-8"?>
<svg id="Capa_1" data-name="Capa 1" xmlns="http://www.w3.org/2000/svg" viewBox="0 0 24.75 24.75">
  <defs>
    <style>
      .cls-1 {
        fill: #e6e8e6;
      }

      .cls-2 {
        fill: #373f51;
        stroke: #e5e7e6;
        stroke-miterlimit: 10;
        stroke-width: .75px;
      }

      .cls-3 {
        fill: #b91818;
      }
    </style>
  </defs>
  <rect class="cls-2" x=".38" y=".38" width="24" height="24" rx="4.1" ry="4.1"/>
  <path class="cls-3" d="M11.75,2.44c.53-.02,1.14.05,1.75.18.29.06.51.21.55.53.06.43-.27.75-.74.7-.36-.04-.71-.1-1.06-.13-1.66-.13-3.22.22-4.66,1.06-2.02,1.19-3.36,2.92-3.85,5.22-.68,3.18.23,5.89,2.7,8.02,2,1.73,4.37,2.29,6.93,1.73,2.85-.62,4.83-2.37,5.89-5.1.65-1.65.67-3.34.23-5.05-.04-.14-.1-.28-.07-.43.05-.3.28-.52.57-.55.29-.03.55.14.65.44.32.98.45,1.99.42,3.01-.07,1.97-.67,3.76-1.87,5.33-1.65,2.17-3.83,3.44-6.54,3.72-2.48.26-4.72-.37-6.69-1.89-2.22-1.71-3.47-3.99-3.64-6.78-.22-3.58,1.22-6.41,4.13-8.46,1.55-1.09,3.32-1.6,5.33-1.59Z"/>
  <path class="cls-1" d="M15.46,15.27c.7.33.98.8.87,1.38-.1.52-.56.92-1.08.95-.54.03-1-.3-1.17-.83-.18-.59.05-1.06.74-1.48h-3.98c.32.16.58.33.71.63.14.3.14.61.03.92-.16.46-.66.79-1.13.76-.53-.03-.96-.39-1.09-.9-.14-.57.1-1.01.75-1.4-.02,0-.03-.02-.05-.02-1.04.04-.9-.15-1.16-.89-.53-1.52-1.06-3.03-1.58-4.55-.06-.19-.17-.23-.35-.23-.54,0-1.07,0-1.61,0-.37,0-.56-.15-.57-.45,0-.3.19-.46.58-.46.66,0,1.32,0,1.99,0,.47,0,.56.06.71.5.54,1.56,1.08,3.12,1.62,4.67.17.49.17.5.69.5,1.98,0,3.95,0,5.93,0,.09,0,.19,0,.28,0,.3,0,.52.19.52.43,0,.27-.19.46-.52.47-.36.01-.73,0-1.14,0Z"/>
  <path class="cls-1" d="M14.21,7.11c.93.03,1.6.47,1.98,1.31.37.81.2,1.76-.42,2.4-.91.93-1.83,1.85-2.76,2.76-.89.87-2.22.84-3.11-.05-.83-.82-.86-2.17-.01-3.04.93-.97,1.89-1.91,2.85-2.85.4-.39.91-.55,1.47-.54ZM14.18,8.02c-.32-.01-.61.1-.84.31-.32.29-.61.6-.92.9-.14.13-.12.25,0,.37.49.49.99.97,1.47,1.46.11.11.2.13.31,0,.31-.32.64-.61.93-.94.34-.4.42-.87.2-1.35-.22-.5-.62-.75-1.17-.76ZM10.2,11.8c.01.7.24,1.12.73,1.35.49.23.97.17,1.38-.19.33-.29.63-.62.95-.92.12-.11.12-.2,0-.31-.5-.49-1.01-.98-1.5-1.48-.14-.15-.24-.12-.36.01-.28.29-.56.56-.84.85-.23.24-.36.51-.35.69Z"/>
  <path class="cls-1" d="M14.47,12.89c0-.67.55-1.22,1.22-1.23.68,0,1.27.59,1.25,1.28-.01.66-.58,1.21-1.26,1.2-.7,0-1.22-.54-1.22-1.25ZM15.81,11.99c-.42-.02-.71.11-.9.41-.19.3-.2.61-.04.93.06.12.12.24.27.07.32-.33.65-.65.97-.99.17-.18.13-.32-.1-.4-.09-.03-.19-.03-.22-.03Z"/>
  <path class="cls-3" d="M17.52,6.44v.59h-1.71c0-1.02.68-1.48,1.06-1.87.03-.04.05-.08.06-.12,0-.04.01-.07.01-.1,0-.08-.03-.15-.07-.21-.05-.06-.11-.08-.2-.08-.08,0-.14.03-.2.08-.06.06-.09.13-.1.23v.08h-.58v-.1c.01-.25.1-.46.25-.63s.36-.25.59-.25h0c.25,0,.46.09.62.25s.25.38.25.63c0,.69-.92,1.05-.92,1.5h.92Z"/>
  <path class="cls-3" d="M19.65,6.05v.57h-.22v.41h-.58v-.41h-1.12v-.49l.93-2.07h.76v1.99h.22ZM18.86,6.05v-1l-.46,1h.46Z"/>
  <path class="cls-3" d="M21.14,5.38v1.57h-.31v-.65h-.49v.65h-.31v-1.57h.31v.63h.49v-.63h.31Z"/>
  <path class="cls-3" d="M22.47,6.48v.47h-.32v-.37c0-.06-.02-.12-.04-.16-.04-.06-.1-.09-.17-.09h-.31v.62h-.31v-1.58h.74c.09,0,.16.03.23.07.11.08.18.21.18.36,0,.24-.2.37-.2.37,0,0,.05.02.1.06.05.05.11.13.11.25ZM22.04,5.69s-.04-.01-.07-.01h-.33v.34h.33s.07-.01.09-.03c.1-.07.1-.25-.02-.3Z"/>
</svg>