<?xml version="1.0" encoding="UTF-8"?>
<svg id="Capa_1" data-name="Capa 1" xmlns="http://www.w3.org/2000/svg" viewBox="0 0 24.75 24.75">
  <defs>
    <style>
      .cls-1 {
        fill: #b71d1b;
      }

      .cls-1, .cls-2, .cls-3 {
        stroke: #e5e7e6;
        stroke-miterlimit: 10;
      }

      .cls-1, .cls-3 {
        stroke-width: .25px;
      }

      .cls-2 {
        stroke-width: .75px;
      }

      .cls-2, .cls-3 {
        fill: #373f51;
      }
    </style>
  </defs>
  <rect class="cls-2" x=".38" y=".38" width="24" height="24" rx="4.1" ry="4.1"/>
  <polygon class="cls-1" points="14.9 8.7 14.9 9.95 13.34 9.95 13.34 11.51 12.08 11.51 12.08 9.95 10.53 9.95 10.53 8.7 12.08 8.7 12.08 7.14 13.34 7.14 13.34 8.7 14.9 8.7"/>
  <path class="cls-3" d="M2.89,7.72v12.12h5.23V7.72H2.89ZM5.19,18.64h-1.09v-1.09h1.09v1.09ZM5.19,16.91h-1.09v-1.09h1.09v1.09ZM5.19,15.19h-1.09v-1.09h1.09v1.09ZM5.19,13.46h-1.09v-1.09h1.09v1.09ZM5.19,11.74h-1.09v-1.09h1.09v1.09ZM6.91,18.64h-1.09v-1.09h1.09v1.09ZM6.91,16.91h-1.09v-1.09h1.09v1.09ZM6.91,15.19h-1.09v-1.09h1.09v1.09ZM6.91,13.46h-1.09v-1.09h1.09v1.09ZM6.91,11.74h-1.09v-1.09h1.09v1.09Z"/>
  <path class="cls-3" d="M17.22,7.72v12.12h5.23V7.72h-5.23ZM19.52,18.64h-1.09v-1.09h1.09v1.09ZM19.52,16.91h-1.09v-1.09h1.09v1.09ZM19.52,15.19h-1.09v-1.09h1.09v1.09ZM19.52,13.46h-1.09v-1.09h1.09v1.09ZM19.52,11.74h-1.09v-1.09h1.09v1.09ZM21.24,18.64h-1.09v-1.09h1.09v1.09ZM21.24,16.91h-1.09v-1.09h1.09v1.09ZM21.24,15.19h-1.09v-1.09h1.09v1.09ZM21.24,13.46h-1.09v-1.09h1.09v1.09ZM21.24,11.74h-1.09v-1.09h1.09v1.09Z"/>
  <path class="cls-3" d="M8.73,4.9v14.94h2.74v-2.94h2.49v2.94h2.74V4.9h-7.97ZM10.7,16.05h-.75v-.75h.75v.75ZM10.7,14.85h-.75v-.75h.75v.75ZM11.89,16.05h-.75v-.75h.75v.75ZM11.89,14.85h-.75v-.75h.75v.75ZM13.09,16.05h-.75v-.75h.75v.75ZM13.09,14.85h-.75v-.75h.75v.75ZM14.29,16.05h-.75v-.75h.75v.75ZM14.29,14.85h-.75v-.75h.75v.75ZM15.48,16.05h-.75v-.75h.75v.75ZM15.48,14.85h-.75v-.75h.75v.75ZM12.71,12.38c-1.64,0-2.97-1.33-2.97-2.97s1.33-2.97,2.97-2.97,2.97,1.33,2.97,2.97-1.33,2.97-2.97,2.97Z"/>
</svg>