<?xml version="1.0" encoding="UTF-8"?>
<svg id="Capa_1" data-name="Capa 1" xmlns="http://www.w3.org/2000/svg" viewBox="0 0 24.75 24.75">
  <defs>
    <style>
      .cls-1, .cls-2, .cls-3, .cls-4, .cls-5 {
        stroke: #e5e7e6;
        stroke-miterlimit: 10;
      }

      .cls-1, .cls-2, .cls-4, .cls-5 {
        stroke-width: .12px;
      }

      .cls-1, .cls-3 {
        fill: #373f51;
      }

      .cls-2 {
        fill: #e6e6e5;
      }

      .cls-3 {
        stroke-width: .75px;
      }

      .cls-4 {
        fill: none;
      }

      .cls-5 {
        fill: #7875b4;
      }
    </style>
  </defs>
  <rect class="cls-3" x=".38" y=".38" width="24" height="24" rx="4.1" ry="4.1"/>
  <g>
    <path class="cls-1" d="M22.25,17.7h-11.03s-.04.06-.04.06v1.03h11.06v-1.1Z"/>
    <path class="cls-1" d="M22.25,19.46H4.43s-.06.06-.06.06v1.03h17.89v-1.1Z"/>
    <path class="cls-5" d="M5.42,10.59s.17.13.23.14c.15.02,1.35.02,1.44-.02.02,0,.12-.11.12-.12v-.59h-1.78v.59Z"/>
    <path class="cls-5" d="M22.94,7.45c-.35-.18-.71-.36-1.05-.55-2.85-1.65-5.71-3.3-8.58-4.91L4.5,7c-.09.09-.82.47-.82.51v.75h19.26v-.81Z"/>
    <rect class="cls-1" x="12.76" y="11.06" width="1.1" height="6.33"/>
    <rect class="cls-1" x="9.25" y="11.06" width="1.1" height="6.33"/>
    <rect class="cls-1" x="5.76" y="11.06" width="1.1" height="3.65"/>
    <path class="cls-2" d="M8.22,18.85c.34,1.6,2.46,1.62,2.8,0h-2.8Z"/>
    <path class="cls-5" d="M9.07,10.72c.14.05,1.21.04,1.4.02.05,0,.22-.05.22-.1v-.63h-1.78c.02.21-.09.63.16.71Z"/>
    <polygon class="cls-2" points="1.81 18.52 4.36 18.52 3.09 15.73 1.81 18.52"/>
    <path class="cls-2" d="M4.45,18.85H1.69c.29,1.61,2.5,1.61,2.76,0Z"/>
    <polygon class="cls-2" points="9.62 15.68 8.34 18.52 10.89 18.52 9.62 15.68"/>
    <path class="cls-2" d="M6.26,14.72c-.63.08-.66,1.06,0,1.16.85.12.89-1.27,0-1.16Z"/>
    <path class="cls-1" d="M20.83,11.06h-1.05v6.33h1.1v-6.18s-.06-.09-.04-.14Z"/>
    <path class="cls-5" d="M19.57,10.72c.11.04,1.42.04,1.5,0,.02,0,.12-.11.12-.12v-.59h-1.78c.02.21-.09.63.16.71Z"/>
    <path class="cls-5" d="M14.22,10.01h-1.78v.63s.17.1.22.1c.23.03,1.16.03,1.37-.01.32-.07.14-.5.19-.72Z"/>
    <path class="cls-1" d="M22.25,8.59H4.43s-.06.06-.06.06v1.03h17.89v-1.1Z"/>
    <path class="cls-5" d="M17.71,10.01h-1.78v.59s.1.11.12.12c.09.04,1.39.04,1.5,0,.25-.08.14-.5.16-.71Z"/>
    <rect class="cls-1" x="16.29" y="11.06" width="1.05" height="6.33"/>
    <line class="cls-4" x1="6.34" y1="21.83" x2="6.34" y2="15.88"/>
    <line class="cls-4" x1="3.09" y1="15.89" x2="9.62" y2="15.89"/>
    <line class="cls-4" x1="5.28" y1="21.83" x2="7.49" y2="21.83"/>
  </g>
</svg>