<?xml version="1.0" encoding="UTF-8"?>
<svg id="Capa_1" data-name="Capa 1" xmlns="http://www.w3.org/2000/svg" viewBox="0 0 24.75 24.75">
  <defs>
    <style>
      .cls-1 {
        fill: #b91818;
      }

      .cls-1, .cls-2, .cls-3, .cls-4 {
        stroke-miterlimit: 10;
      }

      .cls-1, .cls-2, .cls-4 {
        stroke: #e6e8e6;
        stroke-width: .25px;
      }

      .cls-2, .cls-3 {
        fill: #373f51;
      }

      .cls-3 {
        stroke: #e5e7e6;
        stroke-width: .75px;
      }

      .cls-4 {
        fill: #1e1e1c;
      }
    </style>
  </defs>
  <rect class="cls-3" x=".38" y=".38" width="24" height="24" rx="4.1" ry="4.1"/>
  <g>
    <g>
      <path class="cls-2" d="M22.83,11.38c-.99.68-1.98,1.35-2.97,2.03-.05.03-.09.06-.15.1,0-.3.01-.58,0-.86-.02-.25-.04-.51-.11-.75-.16-.54-.54-.91-1.01-1.19-.61-.36-1.28-.55-1.96-.67-1.21-.22-2.43-.26-3.65-.26-.99,0-1.99,0-2.98.05-1.05.04-2.09.17-3.08.53-.46.17-.9.39-1.25.74-.4.39-.59.87-.6,1.42,0,.32,0,.64,0,.98l-.14-.1-2.09-1.42-.21-.14c-.22-.15-.44-.3-.67-.45-.19-.13-.29-.3-.27-.53.02-.23.14-.39.34-.48,2.04-.91,4.07-1.81,6.11-2.71,1.32-.59,2.64-1.17,3.96-1.76.2-.09.39-.09.59,0,3.29,1.46,6.58,2.93,9.87,4.39.07.03.15.06.21.1.4.2.43.74.07.98Z"/>
      <path class="cls-1" d="M18.57,13.98c-.6-.26-1.22-.43-1.84-.51-.66-.09-1.32-.18-1.98-.22-1.26-.09-2.53-.1-3.79-.05-1.2.04-2.41.13-3.58.4-.37.09-.73.23-1.09.34-.03.01-.06.02-.11.04,0-.2,0-.39,0-.58,0-.25,0-.49,0-.74,0-.37.15-.66.44-.87.39-.29.85-.43,1.31-.54.77-.18,1.56-.24,2.35-.28,1.21-.06,2.42-.06,3.64-.02,1.04.04,2.08.09,3.09.35.36.09.71.21,1.02.42.36.24.56.55.54,1-.01.42,0,.84,0,1.27Z"/>
      <path class="cls-2" d="M12.37,16.55c-1.15,0-2.3-.05-3.44-.19-.7-.09-1.39-.19-2.06-.42-.16-.06-.33-.13-.47-.22-.29-.18-.29-.41,0-.58.22-.13.46-.22.7-.3.7-.21,1.42-.3,2.14-.38,1.29-.14,2.57-.18,3.87-.15.97.02,1.94.08,2.9.21.64.09,1.28.18,1.89.4.16.06.32.13.47.22.3.18.3.42,0,.59-.24.13-.5.24-.77.31-.82.23-1.66.34-2.51.4-.9.06-1.8.1-2.71.15,0,0,0-.02,0-.03Z"/>
    </g>
    <path class="cls-1" d="M4.97,17.08c-.2.51-.49.98-.79,1.44-.08.13-.17.25-.26.39-.06-.09-.12-.16-.17-.24-.31-.47-.62-.94-.84-1.46-.24-.57-.12-1,.38-1.38.03-.02.05-.07.05-.11,0-.47,0-.93,0-1.4v-1.62l1.13.74v1.4c0,.2,0,.4,0,.6,0,.09,0,.17,0,.26,0,.07.02.11.08.16.34.21.62.7.41,1.23Z"/>
    <path class="cls-4" d="M4.48,14.26v.6h0c0-.2,0-.4,0-.6Z"/>
  </g>
</svg>