<?xml version="1.0" encoding="UTF-8"?>
<svg id="Capa_1" data-name="Capa 1" xmlns="http://www.w3.org/2000/svg" viewBox="0 0 25 25">
  <defs>
    <style>
      .cls-1 {
        fill: #b71d1b;
      }

      .cls-1, .cls-2, .cls-3 {
        stroke-miterlimit: 10;
      }

      .cls-1, .cls-3 {
        stroke: #e6e6e5;
        stroke-width: .12px;
      }

      .cls-2 {
        fill: #373f51;
        stroke: #e5e7e6;
      }

      .cls-3 {
        fill: #e5e7e6;
      }
    </style>
  </defs>
  <rect class="cls-2" x=".5" y=".5" width="24" height="24" rx="4.88" ry="4.88"/>
  <path class="cls-1" d="M9.39,9c.23.01.65,0,.72.31v3.27s.05.05.05.05h1.35v-2.23c0-.12.2-.27.33-.29.23-.03,1.39-.04,1.58.01.09.02.27.19.27.27v2.23h1.35s.05-.05.05-.05v-3.27s.1-.16.11-.18c.16-.15.41-.09.6-.13l-3.21-2.67-3.19,2.67Z"/>
  <path class="cls-3" d="M16.12,5.77c-3.8-3.32-9.56-.08-8.79,4.89.5,3.25,3.94,5.21,7.02,4.15,3.84-1.32,4.84-6.35,1.77-9.04ZM17.25,9.51c-.02.12-.2.3-.32.3h-1.11v3.29c0,.06-.19.28-.29.26-.73-.06-1.56.07-2.29,0-.14-.01-.32-.15-.32-.29v-2.2h-.68c-.02.56.03,1.13,0,1.69,0,.15-.02.37-.03.51-.02.19-.14.27-.32.29-.71.07-1.53-.05-2.25,0-.1.03-.29-.2-.29-.26v-3.29c-.34-.04-.78.05-1.11,0-.32-.05-.43-.48-.19-.7l4.24-3.52c.12-.09.26-.18.41-.1,1.5,1.17,2.92,2.44,4.41,3.63.11.13.16.22.13.4Z"/>
  <path class="cls-1" d="M12.58,2.63c-3.99.02-7.36,3.44-7.11,7.46.12,1.94,1.99,5.03,3.05,6.69,1.12,1.76,2.52,3.78,3.86,5.37.04.04.18.23.22.22,1.58-2.02,3.13-4.07,4.47-6.26,1.15-1.86,2.76-4.61,2.63-6.84-.21-3.69-3.45-6.66-7.13-6.64ZM15.81,14.95c-4.54,2.8-10.2-1.13-9.2-6.34.92-4.83,6.92-6.6,10.36-3.07,2.71,2.78,2.14,7.39-1.15,9.42Z"/>
</svg>