<?xml version="1.0" encoding="UTF-8"?>
<svg id="Capa_1" data-name="Capa 1" xmlns="http://www.w3.org/2000/svg" viewBox="0 0 24.75 24.75">
  <defs>
    <style>
      .cls-1, .cls-2, .cls-3, .cls-4, .cls-5 {
        stroke-miterlimit: 10;
      }

      .cls-1, .cls-3, .cls-4, .cls-5 {
        stroke: #e6e8e6;
        stroke-width: .12px;
      }

      .cls-2 {
        stroke: #e5e7e6;
        stroke-width: .75px;
      }

      .cls-2, .cls-4 {
        fill: #373f51;
      }

      .cls-3 {
        fill: #e6e8e6;
      }

      .cls-5 {
        fill: #b91818;
      }
    </style>
  </defs>
  <rect class="cls-2" x=".38" y=".38" width="24" height="24" rx="4.1" ry="4.1"/>
  <g>
    <path class="cls-4" d="M18.68,13.86c.11.2.21.4.32.58.1.16.47.15.58,0,.04-.05.07-.11.13-.18-.13-.02-.23-.03-.4-.06.15-.2.28-.38.41-.56-.12-.02-.22-.03-.38-.06.16-.21.29-.38.44-.57-.09-.02-.16-.03-.27-.05.21-.3.41-.58.63-.88.21.31.41.61.63.93-.11.01-.19.02-.29.03.13.2.26.39.41.62-.14.01-.24.03-.38.04.14.19.27.38.43.59-.14.02-.25.03-.35.04.1.28.24.43.49.43.05-.49.13-.98.14-1.48.02-.97,0-1.95.01-2.92,0-.11.06-.23.14-.31.19-.23.41-.45.63-.69,0,.05.02.1.02.15,0,1.25.02,2.5,0,3.75-.04,2.39-1.08,4.29-2.87,5.82-1.18,1-2.55,1.69-3.97,2.26-.9.36-1.79.72-2.69,1.07-.07.03-.16.03-.22,0-1.21-.48-2.44-.94-3.63-1.47-1.57-.69-2.99-1.61-4.12-2.92-1.17-1.36-1.77-2.94-1.78-4.73-.02-2.71,0-5.42-.01-8.13,0-.19.1-.21.23-.23,1.38-.29,2.76-.57,4.13-.89,1.61-.38,3.2-.85,4.7-1.55.46-.21.78-.17,1.21.03,1.49.7,3.06,1.17,4.65,1.57.43.11.86.21,1.36.33-.13.05-.19.09-.26.1-.55.07-1.09.19-1.64.18-.39,0-.8-.14-1.18-.27-1.16-.41-2.3-.84-3.45-1.26-.07-.02-.16-.03-.22,0-2.31,1.01-4.73,1.62-7.18,2.15-.45.1-.91.2-1.36.28-.15.03-.2.09-.2.24,0,2.49,0,4.98,0,7.47,0,.32.04.65.06,1.01.23-.11.47-.07.61-.31-.1-.02-.18-.03-.3-.05.12-.17.22-.32.33-.48-.1-.02-.18-.03-.3-.05.12-.18.22-.33.33-.5-.07-.02-.13-.03-.21-.05.18-.26.35-.51.53-.77.18.27.35.51.53.77-.08.03-.13.05-.19.08.1.16.19.32.3.5-.11.01-.18.02-.26.03.14.32.14.32.46.23.16-.05.36-.04.42-.27-.15-.02-.3-.03-.52-.06.22-.3.4-.55.61-.83-.13,0-.23,0-.33,0-.18,0-.21-.07-.11-.21.15-.22.31-.42.47-.65-.13-.02-.24-.04-.39-.07.29-.44.57-.85.87-1.3.31.45.59.87.89,1.32-.15.03-.25.04-.38.07.18.27.36.54.57.86h-.56c.15.21.26.39.4.54.04.05.17.03.26.01.67-.1,1.33-.22,2-.31.28-.04.58,0,.9,0-.48.2-.94.38-1.39.59-.39.18-.76.4-1.12.61-.12.07-.22.19-.31.3-.21.26-.24.56-.04.83.16.22.36.42.57.59.45.34.93.64,1.38.99.5.39.49.83,0,1.24-.6.51-1.33.78-2.06,1.06-.08.03-.16.06-.3.11.41.24.78.46,1.15.67,1.24.68,2.57,1.15,3.89,1.64.06.02.13.02.19,0,1.28-.47,2.57-.93,3.69-1.74.31-.23.59-.51.83-.82.31-.4.24-.9-.14-1.24-.28-.24-.61-.41-.91-.62-.07-.05-.14-.14-.16-.22-.1-.63-.16-1.27-.28-1.89-.08-.42-.26-.81-.39-1.22-.02-.08-.05-.15-.09-.27.13.03.23.05.33.08.64.2,1.27.41,1.91.61.32.1.32.09.49-.24-.13-.02-.25-.04-.42-.07.16-.22.29-.4.44-.61-.12-.02-.24-.03-.41-.05.17-.24.32-.44.47-.66-.1-.02-.19-.04-.31-.06.23-.35.45-.67.69-1.03.24.35.47.68.72,1.04-.12.03-.2.04-.3.07.14.21.28.43.45.68-.17,0-.28.01-.42.02.15.22.3.41.47.65-.15.02-.26.03-.4.05Z"/>
    <path class="cls-3" d="M14.39,11.17c-.06.36-.13.7-.18,1.05-.01.07.03.15.06.23.25.73.54,1.46.76,2.2.14.48.19,1,.27,1.5.06.34.11.67.15,1.01.02.19.12.26.28.3.11.02.24.03.34.09.08.04.19.15.19.22,0,.09-.11.18-.19.26-.03.03-.1.03-.15.03-.8-.01-1.61-.03-2.42-.1.32-.04.64-.07.99-.11-.03-.18-.05-.35-.08-.53-.11-.65-.19-1.31-.36-1.95-.1-.36-.35-.67-.56-1.05-.49,1.06-1.21,1.88-1.82,2.78-.08.12-.09.23-.01.34.07.09.15.18.21.27.05.07.11.19.08.24-.05.08-.16.16-.25.16-.49,0-.98-.02-1.47-.03,0-.03,0-.05,0-.08.26-.03.51-.07.85-.11-.18-.19-.31-.34-.46-.47-.26-.23-.28-.26-.08-.55.5-.75,1-1.5,1.49-2.25.06-.09.11-.21.12-.32.1-.6.18-1.21.27-1.81,0-.06.05-.14.1-.16.14-.05.16-.14.1-.26-.26-.57-.21-1.14-.04-1.72.12-.42.24-.85.36-1.28.02-.06.04-.11.05-.17.01-.14-.03-.31.14-.38.19-.08.39-.19.59-.19.52,0,.83.28.94.79.08.37.15.74.24,1.11.02.1.1.2.18.27.33.25.66.49,1,.73.09.06.18.11.28.16.25.11.36.31.26.51-.11.21-.35.26-.6.12-.49-.26-.98-.52-1.48-.77-.04-.02-.08-.03-.15-.06Z"/>
    <path class="cls-5" d="M16.84,5.27c.58-.06,1.1-.11,1.62-.18.28-.04.56-.15.84-.21.1-.02.23-.01.31.04.68.44,1.41.77,2.2.96.16.04.25.1.24.29-.04.59-.02,1.18-.1,1.76-.16,1.13-.9,1.85-1.85,2.38-.26.14-.54.25-.82.36-.06.02-.16.02-.22-.02-.8-.52-1.5-1.16-1.92-2.03-.18-.37-.32-.79-.34-1.2-.04-.72.02-1.45.04-2.15ZM17.75,6.17c0,.09-.03.21-.03.33,0,.4-.05.81.02,1.19.16.86.77,1.4,1.44,1.88.04.03.13.03.18,0,.31-.16.64-.31.93-.51.4-.27.66-.66.72-1.14.05-.37.05-.75.07-1.13,0-.14-.06-.19-.18-.25-.46-.2-.9-.42-1.36-.63-.06-.03-.12-.06-.18-.05-.53.09-1.06.2-1.62.3Z"/>
    <path class="cls-5" d="M10.83,7.1c0,.55-.17.97-.37,1.38-.34.69-.77,1.33-1.29,1.91-.22.25-.29.26-.5.02-.73-.82-1.35-1.71-1.63-2.79-.19-.73,0-1.38.58-1.87.61-.52,1.33-.64,2.07-.31.74.33,1.11.92,1.13,1.66ZM8.89,8.4c.66,0,1.2-.52,1.21-1.17.01-.69-.52-1.25-1.19-1.27-.65-.01-1.23.54-1.23,1.18,0,.7.52,1.24,1.21,1.25Z"/>
    <path class="cls-3" d="M12.42,12.17c-.42.04-.79.05-1.16-.11-.25-.11-.4-.3-.41-.57-.04-.94.08-1.85.43-2.73.16-.4.35-.48.78-.4.18.03.34.09.52-.08.08-.07.27-.01.42-.01,0,.03.01.06.02.08-.09.06-.18.13-.22.16-.02.19-.02.35-.06.49-.14.56-.29,1.12-.46,1.68-.11.38-.08.74.03,1.11.03.11.06.22.11.37Z"/>
    <path class="cls-3" d="M12.04,12.81c-.14.69-.05,1.38-.52,1.93-.07.09-.12.2-.19.29-.29.45-.3.47-.79.27-.45-.18-.87-.42-1.3-.65-.1-.05-.18-.15-.24-.24-.13-.17-.13-.35.03-.49.17-.15.35-.32.56-.41.58-.24,1.17-.46,1.77-.65.2-.06.42-.04.68-.05Z"/>
    <path class="cls-3" d="M15.26,7.28c0,.55-.4.94-.95.94-.48,0-.86-.43-.87-.96,0-.55.37-.92.91-.92.54,0,.92.39.91.94Z"/>
    <path class="cls-3" d="M13.53,15.08c.28.34.21.76.36,1.19-.35-.09-.66-.17-1-.26.22-.32.43-.62.64-.93Z"/>
    <path class="cls-1" d="M20.34,4.68c.39.07.78.14,1.17.2.06.01.13.02.19.03q.33.06.3.45c-.6-.1-1.15-.34-1.66-.69Z"/>
    <path class="cls-5" d="M19.11,7.99c.32-.3.61-.57.9-.85.06-.05.12-.13.19-.14.09-.01.24,0,.28.05.05.06.04.22,0,.28-.1.14-.25.24-.37.36-.27.25-.54.5-.81.76-.14.13-.26.13-.39,0-.14-.15-.29-.31-.43-.46-.1-.11-.12-.25-.01-.32.08-.05.25-.05.35,0,.12.07.2.2.31.32Z"/>
    <path class="cls-5" d="M8.67,7.4c.21-.23.42-.45.62-.67.03-.04.07-.1.11-.1.08-.02.2-.04.25,0,.04.03.05.19,0,.24-.27.32-.56.63-.85.93-.04.04-.2.04-.26,0-.14-.09-.26-.21-.36-.34-.05-.06-.03-.17-.04-.26.09,0,.2-.04.28,0,.09.04.17.14.26.22Z"/>
  </g>
</svg>