<?xml version="1.0" encoding="UTF-8"?>
<svg id="Capa_1" data-name="Capa 1" xmlns="http://www.w3.org/2000/svg" viewBox="0 0 24.75 24.75">
  <defs>
    <style>
      .cls-1 {
        fill: #e6e8e6;
      }

      .cls-2 {
        fill: #e5e7e6;
      }

      .cls-3 {
        fill: #373f51;
        stroke: #e5e7e6;
        stroke-miterlimit: 10;
        stroke-width: .75px;
      }

      .cls-4 {
        fill: #b91818;
      }
    </style>
  </defs>
  <rect class="cls-3" x=".38" y=".38" width="24" height="24" rx="4.1" ry="4.1"/>
  <g>
    <path class="cls-4" d="M15.31,13.93c-.02.45.1.9.48,1.26.58.54,1.55.3,1.76-.47.08-.29.21-.38.48-.34.11.01.22,0,.33,0,.28,0,.32.06.28.34-.17.97-.97,1.66-1.96,1.67-1.33.02-2.2-.69-2.44-1.96-.1-.54-.05-1.08.12-1.6.55-1.68,2.46-1.9,3.5-1.17.39.27.64.64.74,1.11.06.27.03.3-.24.31-.1,0-.21,0-.31,0-.27.03-.44-.04-.58-.32-.34-.69-1.37-.73-1.84-.11-.28.36-.33.78-.33,1.27Z"/>
    <path class="cls-4" d="M20.96,11.48c.37,0,.74,0,1.11,0,.17,0,.24.08.25.25.04.56.02.59-.53.59-.39,0-.79,0-1.18,0-.15,0-.24.05-.27.21-.03.19-.08.37-.11.55,0,.05,0,.11.02.14.04.05.09,0,.13-.03.88-.46,1.84-.03,2.1.93.23.85-.17,1.66-.79,2.03-.65.38-1.66.28-2.24-.24-.25-.23-.36-.54-.42-.86-.03-.14.04-.21.18-.21.11,0,.22,0,.33,0,.28-.03.46.04.59.34.2.47.86.5,1.21.09.22-.26.27-.76.1-1.07-.18-.33-.44-.44-.87-.38-.15.02-.27.08-.36.18-.27.29-.61.15-.92.16-.1,0-.1-.1-.08-.18.13-.76.27-1.52.4-2.28.03-.16.11-.21.27-.21.36,0,.72,0,1.08,0h0Z"/>
    <path class="cls-2" d="M10.1,16.22c-.37.53-.71,1.02-1.06,1.5-.04.06-.15.11-.23.11-1.54,0-3.07.02-4.61,0-.96,0-1.71-.76-1.72-1.73-.01-2.39-.01-4.77,0-7.16,0-.97.78-1.71,1.76-1.72,1.06,0,2.13,0,3.19,0,.19,0,.29-.06.36-.24.12-.32.27-.63.41-.94.18-.41.51-.62.95-.62,1.41,0,2.81,0,4.22,0,.46,0,.78.21.97.64.15.33.29.66.43.99.05.13.13.18.27.18.44,0,.89,0,1.39,0-.66.93-1.29,1.83-1.92,2.73-1.38-1.72-3.1-2.35-5.15-1.45-1.61.7-2.41,2.04-2.41,3.81,0,.93.33,1.76.91,2.49.58.72,1.33,1.18,2.25,1.43ZM15.68,7.61c-.34,0-.61,0-.89,0-.14,0-.21-.05-.27-.18-.17-.4-.35-.78-.51-1.18-.13-.31-.34-.45-.67-.45-1.38,0-2.76,0-4.14,0-.33,0-.53.14-.66.43-.16.37-.33.73-.48,1.11-.08.19-.18.27-.4.26-1.13-.01-2.27-.01-3.4,0-.8,0-1.39.59-1.39,1.38,0,2.36,0,4.72,0,7.08,0,.77.58,1.37,1.34,1.38,1.47.01,2.93,0,4.4,0,.07,0,.17-.04.21-.1.22-.29.43-.6.65-.92-.88-.35-1.6-.9-2.13-1.67-.53-.77-.8-1.63-.8-2.56,0-.94.27-1.8.81-2.56.72-1.01,1.69-1.65,2.92-1.85,1.66-.27,3.05.28,4.21,1.51.39-.56.78-1.11,1.19-1.7Z"/>
    <path class="cls-1" d="M8.37,19.6c.76-1.09,1.5-2.13,2.23-3.18,2.51-3.57,5.01-7.13,7.51-10.7.17-.24.33-.39.66-.27-.05.07-.09.14-.14.22-3.21,4.57-6.42,9.14-9.62,13.71-.17.25-.36.23-.64.21Z"/>
    <path class="cls-2" d="M4.78,7c0-.25,0-.48,0-.72,0-.05.1-.14.16-.14.6-.01,1.2-.01,1.8,0,.06,0,.17.1.17.15.02.23,0,.46,0,.71h-2.14Z"/>
    <path class="cls-2" d="M10.88,8.65c-.16.07-.31.18-.48.2-1.34.23-2.42,1.3-2.65,2.64-.03.2-.05.39-.27.47-.33-1.52,1.57-3.45,3.36-3.41l.04.09Z"/>
  </g>
</svg>