<?xml version="1.0" encoding="UTF-8"?>
<svg id="Capa_1" data-name="Capa 1" xmlns="http://www.w3.org/2000/svg" viewBox="0 0 25 25">
  <defs>
    <style>
      .cls-1 {
        fill: #e1231d;
      }

      .cls-1, .cls-2, .cls-3 {
        stroke: #e5e7e6;
        stroke-miterlimit: 10;
      }

      .cls-1, .cls-3 {
        stroke-width: .12px;
      }

      .cls-2 {
        fill: #373f51;
      }

      .cls-3 {
        fill: #272f62;
      }
    </style>
  </defs>
  <rect class="cls-2" x=".5" y=".5" width="24" height="24" rx="4.88" ry="4.88"/>
  <g>
    <path class="cls-1" d="M22.1,14.1l.85.87c-.87-.17-1.73-.4-2.61-.55-4.43-.74-9.01-.64-13.25.96l-.17-.09-1.51-2.21c.64-.19,1.29-.34,1.95-.47,3.62-.72,7.8-.82,11.42-.08,1.5.31,2.13.62,3.31,1.56Z"/>
    <path class="cls-3" d="M19.59,12.35c-.54-.1-1.07-.23-1.61-.31-3.99-.62-7.86-.59-11.78.4-.34.09-.94.44-1.2.2l-1.31-1.84c.98-.14,1.94-.41,2.92-.56,2.95-.46,6.03-.5,8.98.01,1.75.31,2.2.49,3.54,1.62.15.13.44.28.45.49Z"/>
    <path class="cls-1" d="M17.05,10.3c-1-.13-1.99-.38-2.99-.49-2.81-.3-5.98-.21-8.75.35-.36.07-1.6.5-1.82.47-.07,0-.12-.03-.16-.09l-1.27-1.76c.02-.09,1.09-.31,1.29-.35,2.5-.45,6.54-.43,9.06-.09,1.69.23,3.56.5,4.64,1.96Z"/>
  </g>
</svg>